<mxfile host="app.diagrams.net" modified="2023-11-01T10:49:54.648Z" agent="Mozilla/5.0 (X11; Linux x86_64; rv:109.0) Gecko/20100101 Firefox/118.0" etag="kdR9d-rjiWSiplfasCW-" version="22.0.8" type="device">
  <diagram id="C5RBs43oDa-KdzZeNtuy" name="Page-1">
    <mxGraphModel dx="3744" dy="1611" grid="1" gridSize="10" guides="1" tooltips="1" connect="1" arrows="1" fold="1" page="1" pageScale="1" pageWidth="827" pageHeight="1169" math="1" shadow="0">
      <root>
        <mxCell id="WIyWlLk6GJQsqaUBKTNV-0" />
        <mxCell id="WIyWlLk6GJQsqaUBKTNV-1" parent="WIyWlLk6GJQsqaUBKTNV-0" />
        <mxCell id="ASWdld6HUyY5SWto6gkA-1" style="edgeStyle=orthogonalEdgeStyle;rounded=0;orthogonalLoop=1;jettySize=auto;html=1;exitX=0.5;exitY=1;exitDx=0;exitDy=0;entryX=0.5;entryY=0;entryDx=0;entryDy=0;" edge="1" parent="WIyWlLk6GJQsqaUBKTNV-1" source="WIyWlLk6GJQsqaUBKTNV-3" target="WIyWlLk6GJQsqaUBKTNV-6">
          <mxGeometry relative="1" as="geometry" />
        </mxCell>
        <mxCell id="WIyWlLk6GJQsqaUBKTNV-3" value="Device startup" style="rounded=1;whiteSpace=wrap;html=1;fontSize=12;glass=0;strokeWidth=1;shadow=0;" parent="WIyWlLk6GJQsqaUBKTNV-1" vertex="1">
          <mxGeometry x="160" y="80" width="120" height="40" as="geometry" />
        </mxCell>
        <mxCell id="ASWdld6HUyY5SWto6gkA-0" style="edgeStyle=orthogonalEdgeStyle;rounded=0;orthogonalLoop=1;jettySize=auto;html=1;exitX=1;exitY=0.5;exitDx=0;exitDy=0;entryX=0;entryY=0.5;entryDx=0;entryDy=0;" edge="1" parent="WIyWlLk6GJQsqaUBKTNV-1" source="WIyWlLk6GJQsqaUBKTNV-6" target="WIyWlLk6GJQsqaUBKTNV-10">
          <mxGeometry relative="1" as="geometry" />
        </mxCell>
        <mxCell id="ASWdld6HUyY5SWto6gkA-2" value="&lt;div&gt;No&lt;/div&gt;" style="edgeLabel;html=1;align=center;verticalAlign=middle;resizable=0;points=[];" vertex="1" connectable="0" parent="ASWdld6HUyY5SWto6gkA-0">
          <mxGeometry x="-0.065" relative="1" as="geometry">
            <mxPoint as="offset" />
          </mxGeometry>
        </mxCell>
        <mxCell id="ASWdld6HUyY5SWto6gkA-25" style="edgeStyle=orthogonalEdgeStyle;rounded=0;orthogonalLoop=1;jettySize=auto;html=1;exitX=0.5;exitY=1;exitDx=0;exitDy=0;entryX=0.5;entryY=0;entryDx=0;entryDy=0;" edge="1" parent="WIyWlLk6GJQsqaUBKTNV-1" source="WIyWlLk6GJQsqaUBKTNV-6" target="ASWdld6HUyY5SWto6gkA-28">
          <mxGeometry relative="1" as="geometry">
            <mxPoint x="220" y="350" as="targetPoint" />
          </mxGeometry>
        </mxCell>
        <mxCell id="ASWdld6HUyY5SWto6gkA-26" value="Yes" style="edgeLabel;html=1;align=center;verticalAlign=middle;resizable=0;points=[];" vertex="1" connectable="0" parent="ASWdld6HUyY5SWto6gkA-25">
          <mxGeometry x="-0.2032" y="-1" relative="1" as="geometry">
            <mxPoint as="offset" />
          </mxGeometry>
        </mxCell>
        <mxCell id="WIyWlLk6GJQsqaUBKTNV-6" value="Network Initialized?" style="rhombus;whiteSpace=wrap;html=1;shadow=0;fontFamily=Helvetica;fontSize=12;align=center;strokeWidth=1;spacing=6;spacingTop=-4;" parent="WIyWlLk6GJQsqaUBKTNV-1" vertex="1">
          <mxGeometry x="170" y="170" width="100" height="80" as="geometry" />
        </mxCell>
        <mxCell id="ASWdld6HUyY5SWto6gkA-4" style="edgeStyle=orthogonalEdgeStyle;rounded=0;orthogonalLoop=1;jettySize=auto;html=1;exitX=0.5;exitY=0;exitDx=0;exitDy=0;entryX=0;entryY=0.5;entryDx=0;entryDy=0;" edge="1" parent="WIyWlLk6GJQsqaUBKTNV-1" source="WIyWlLk6GJQsqaUBKTNV-10" target="ASWdld6HUyY5SWto6gkA-3">
          <mxGeometry relative="1" as="geometry" />
        </mxCell>
        <mxCell id="ASWdld6HUyY5SWto6gkA-5" value="&lt;div&gt;Worker&lt;/div&gt;" style="edgeLabel;html=1;align=center;verticalAlign=middle;resizable=0;points=[];" vertex="1" connectable="0" parent="ASWdld6HUyY5SWto6gkA-4">
          <mxGeometry x="0.2475" y="-1" relative="1" as="geometry">
            <mxPoint as="offset" />
          </mxGeometry>
        </mxCell>
        <mxCell id="ASWdld6HUyY5SWto6gkA-7" style="edgeStyle=orthogonalEdgeStyle;rounded=0;orthogonalLoop=1;jettySize=auto;html=1;exitX=1;exitY=0.5;exitDx=0;exitDy=0;entryX=0;entryY=0.5;entryDx=0;entryDy=0;" edge="1" parent="WIyWlLk6GJQsqaUBKTNV-1" source="WIyWlLk6GJQsqaUBKTNV-10" target="ASWdld6HUyY5SWto6gkA-6">
          <mxGeometry relative="1" as="geometry" />
        </mxCell>
        <mxCell id="ASWdld6HUyY5SWto6gkA-8" value="Gateway" style="edgeLabel;html=1;align=center;verticalAlign=middle;resizable=0;points=[];" vertex="1" connectable="0" parent="ASWdld6HUyY5SWto6gkA-7">
          <mxGeometry x="-0.15" y="1" relative="1" as="geometry">
            <mxPoint as="offset" />
          </mxGeometry>
        </mxCell>
        <mxCell id="ASWdld6HUyY5SWto6gkA-10" style="edgeStyle=orthogonalEdgeStyle;rounded=0;orthogonalLoop=1;jettySize=auto;html=1;exitX=0.5;exitY=1;exitDx=0;exitDy=0;entryX=0;entryY=0.5;entryDx=0;entryDy=0;" edge="1" parent="WIyWlLk6GJQsqaUBKTNV-1" source="WIyWlLk6GJQsqaUBKTNV-10" target="ASWdld6HUyY5SWto6gkA-9">
          <mxGeometry relative="1" as="geometry" />
        </mxCell>
        <mxCell id="ASWdld6HUyY5SWto6gkA-11" value="&lt;div&gt;Root&lt;/div&gt;" style="edgeLabel;html=1;align=center;verticalAlign=middle;resizable=0;points=[];" vertex="1" connectable="0" parent="ASWdld6HUyY5SWto6gkA-10">
          <mxGeometry x="0.4169" relative="1" as="geometry">
            <mxPoint as="offset" />
          </mxGeometry>
        </mxCell>
        <mxCell id="WIyWlLk6GJQsqaUBKTNV-10" value="&lt;div&gt;Device Type?&lt;/div&gt;" style="rhombus;whiteSpace=wrap;html=1;shadow=0;fontFamily=Helvetica;fontSize=12;align=center;strokeWidth=1;spacing=6;spacingTop=-4;" parent="WIyWlLk6GJQsqaUBKTNV-1" vertex="1">
          <mxGeometry x="350" y="170" width="100" height="80" as="geometry" />
        </mxCell>
        <mxCell id="ASWdld6HUyY5SWto6gkA-22" style="edgeStyle=orthogonalEdgeStyle;rounded=0;orthogonalLoop=1;jettySize=auto;html=1;exitX=1;exitY=0.5;exitDx=0;exitDy=0;entryX=0.5;entryY=0;entryDx=0;entryDy=0;" edge="1" parent="WIyWlLk6GJQsqaUBKTNV-1" source="ASWdld6HUyY5SWto6gkA-3" target="ASWdld6HUyY5SWto6gkA-20">
          <mxGeometry relative="1" as="geometry" />
        </mxCell>
        <mxCell id="ASWdld6HUyY5SWto6gkA-3" value="Request Perimeters from Gatway" style="rounded=0;whiteSpace=wrap;html=1;" vertex="1" parent="WIyWlLk6GJQsqaUBKTNV-1">
          <mxGeometry x="570" y="70" width="120" height="60" as="geometry" />
        </mxCell>
        <mxCell id="ASWdld6HUyY5SWto6gkA-21" style="edgeStyle=orthogonalEdgeStyle;rounded=0;orthogonalLoop=1;jettySize=auto;html=1;exitX=1;exitY=0.5;exitDx=0;exitDy=0;entryX=0;entryY=0.5;entryDx=0;entryDy=0;" edge="1" parent="WIyWlLk6GJQsqaUBKTNV-1" source="ASWdld6HUyY5SWto6gkA-6" target="ASWdld6HUyY5SWto6gkA-20">
          <mxGeometry relative="1" as="geometry" />
        </mxCell>
        <mxCell id="ASWdld6HUyY5SWto6gkA-6" value="Request Perimeters from Root" style="rounded=0;whiteSpace=wrap;html=1;" vertex="1" parent="WIyWlLk6GJQsqaUBKTNV-1">
          <mxGeometry x="570" y="180" width="120" height="60" as="geometry" />
        </mxCell>
        <mxCell id="ASWdld6HUyY5SWto6gkA-13" value="" style="edgeStyle=orthogonalEdgeStyle;rounded=0;orthogonalLoop=1;jettySize=auto;html=1;" edge="1" parent="WIyWlLk6GJQsqaUBKTNV-1" source="ASWdld6HUyY5SWto6gkA-9" target="ASWdld6HUyY5SWto6gkA-12">
          <mxGeometry relative="1" as="geometry" />
        </mxCell>
        <mxCell id="ASWdld6HUyY5SWto6gkA-9" value="Generate group G1 of prime order q" style="rounded=0;whiteSpace=wrap;html=1;" vertex="1" parent="WIyWlLk6GJQsqaUBKTNV-1">
          <mxGeometry x="570" y="295" width="120" height="60" as="geometry" />
        </mxCell>
        <mxCell id="ASWdld6HUyY5SWto6gkA-15" value="" style="edgeStyle=orthogonalEdgeStyle;rounded=0;orthogonalLoop=1;jettySize=auto;html=1;" edge="1" parent="WIyWlLk6GJQsqaUBKTNV-1" source="ASWdld6HUyY5SWto6gkA-12" target="ASWdld6HUyY5SWto6gkA-14">
          <mxGeometry relative="1" as="geometry" />
        </mxCell>
        <mxCell id="ASWdld6HUyY5SWto6gkA-12" value="Generate group G2 and bilinear pairing $$e: G1 X G1 -&amp;gt; G2$$" style="rounded=0;whiteSpace=wrap;html=1;" vertex="1" parent="WIyWlLk6GJQsqaUBKTNV-1">
          <mxGeometry x="760" y="280" width="130" height="90" as="geometry" />
        </mxCell>
        <mxCell id="ASWdld6HUyY5SWto6gkA-17" value="" style="edgeStyle=orthogonalEdgeStyle;rounded=0;orthogonalLoop=1;jettySize=auto;html=1;" edge="1" parent="WIyWlLk6GJQsqaUBKTNV-1" source="ASWdld6HUyY5SWto6gkA-14" target="ASWdld6HUyY5SWto6gkA-16">
          <mxGeometry relative="1" as="geometry" />
        </mxCell>
        <mxCell id="ASWdld6HUyY5SWto6gkA-14" value="Map H1 and H2 to G1 and G2" style="rounded=0;whiteSpace=wrap;html=1;" vertex="1" parent="WIyWlLk6GJQsqaUBKTNV-1">
          <mxGeometry x="970" y="295" width="120" height="60" as="geometry" />
        </mxCell>
        <mxCell id="ASWdld6HUyY5SWto6gkA-19" value="" style="edgeStyle=orthogonalEdgeStyle;rounded=0;orthogonalLoop=1;jettySize=auto;html=1;" edge="1" parent="WIyWlLk6GJQsqaUBKTNV-1" source="ASWdld6HUyY5SWto6gkA-16" target="ASWdld6HUyY5SWto6gkA-18">
          <mxGeometry relative="1" as="geometry" />
        </mxCell>
        <mxCell id="ASWdld6HUyY5SWto6gkA-16" value="&lt;div&gt;Select random secret value:$$s \in \mathbb{Z}^*_q$$&lt;br&gt;&lt;/div&gt;" style="rounded=0;whiteSpace=wrap;html=1;" vertex="1" parent="WIyWlLk6GJQsqaUBKTNV-1">
          <mxGeometry x="1165" y="280" width="165" height="90" as="geometry" />
        </mxCell>
        <mxCell id="ASWdld6HUyY5SWto6gkA-23" style="edgeStyle=orthogonalEdgeStyle;rounded=0;orthogonalLoop=1;jettySize=auto;html=1;exitX=0.5;exitY=0;exitDx=0;exitDy=0;entryX=1;entryY=0.5;entryDx=0;entryDy=0;" edge="1" parent="WIyWlLk6GJQsqaUBKTNV-1" source="ASWdld6HUyY5SWto6gkA-18" target="ASWdld6HUyY5SWto6gkA-20">
          <mxGeometry relative="1" as="geometry" />
        </mxCell>
        <mxCell id="ASWdld6HUyY5SWto6gkA-18" value="Generate Public Key and Shared Value: H1(ID) &amp;amp; f(s,Pub)" style="rounded=0;whiteSpace=wrap;html=1;" vertex="1" parent="WIyWlLk6GJQsqaUBKTNV-1">
          <mxGeometry x="1360" y="295" width="120" height="60" as="geometry" />
        </mxCell>
        <mxCell id="ASWdld6HUyY5SWto6gkA-20" value="Restart" style="rounded=1;whiteSpace=wrap;html=1;" vertex="1" parent="WIyWlLk6GJQsqaUBKTNV-1">
          <mxGeometry x="970" y="180" width="120" height="60" as="geometry" />
        </mxCell>
        <mxCell id="ASWdld6HUyY5SWto6gkA-31" style="edgeStyle=orthogonalEdgeStyle;rounded=0;orthogonalLoop=1;jettySize=auto;html=1;exitX=0.5;exitY=1;exitDx=0;exitDy=0;entryX=0.5;entryY=0;entryDx=0;entryDy=0;" edge="1" parent="WIyWlLk6GJQsqaUBKTNV-1" source="ASWdld6HUyY5SWto6gkA-28" target="ASWdld6HUyY5SWto6gkA-29">
          <mxGeometry relative="1" as="geometry">
            <Array as="points">
              <mxPoint x="160" y="480" />
              <mxPoint x="160" y="480" />
            </Array>
          </mxGeometry>
        </mxCell>
        <mxCell id="ASWdld6HUyY5SWto6gkA-35" value="Yes" style="edgeLabel;html=1;align=center;verticalAlign=middle;resizable=0;points=[];" vertex="1" connectable="0" parent="ASWdld6HUyY5SWto6gkA-31">
          <mxGeometry x="-0.6722" y="-2" relative="1" as="geometry">
            <mxPoint as="offset" />
          </mxGeometry>
        </mxCell>
        <mxCell id="ASWdld6HUyY5SWto6gkA-33" style="edgeStyle=orthogonalEdgeStyle;rounded=0;orthogonalLoop=1;jettySize=auto;html=1;exitX=1;exitY=0.5;exitDx=0;exitDy=0;entryX=0;entryY=0.5;entryDx=0;entryDy=0;" edge="1" parent="WIyWlLk6GJQsqaUBKTNV-1" source="ASWdld6HUyY5SWto6gkA-28" target="ASWdld6HUyY5SWto6gkA-30">
          <mxGeometry relative="1" as="geometry" />
        </mxCell>
        <mxCell id="ASWdld6HUyY5SWto6gkA-34" value="No" style="edgeLabel;html=1;align=center;verticalAlign=middle;resizable=0;points=[];" vertex="1" connectable="0" parent="ASWdld6HUyY5SWto6gkA-33">
          <mxGeometry x="-0.2254" y="-1" relative="1" as="geometry">
            <mxPoint as="offset" />
          </mxGeometry>
        </mxCell>
        <mxCell id="ASWdld6HUyY5SWto6gkA-28" value="Incoming Requests?" style="rhombus;whiteSpace=wrap;html=1;" vertex="1" parent="WIyWlLk6GJQsqaUBKTNV-1">
          <mxGeometry x="120" y="350" width="80" height="80" as="geometry" />
        </mxCell>
        <mxCell id="ASWdld6HUyY5SWto6gkA-67" style="edgeStyle=orthogonalEdgeStyle;rounded=0;orthogonalLoop=1;jettySize=auto;html=1;exitX=0.5;exitY=1;exitDx=0;exitDy=0;" edge="1" parent="WIyWlLk6GJQsqaUBKTNV-1" source="ASWdld6HUyY5SWto6gkA-29" target="ASWdld6HUyY5SWto6gkA-66">
          <mxGeometry relative="1" as="geometry" />
        </mxCell>
        <mxCell id="ASWdld6HUyY5SWto6gkA-70" value="&lt;div&gt;Intra&lt;/div&gt;" style="edgeLabel;html=1;align=center;verticalAlign=middle;resizable=0;points=[];" vertex="1" connectable="0" parent="ASWdld6HUyY5SWto6gkA-67">
          <mxGeometry x="-0.1469" y="-1" relative="1" as="geometry">
            <mxPoint as="offset" />
          </mxGeometry>
        </mxCell>
        <mxCell id="ASWdld6HUyY5SWto6gkA-72" value="" style="edgeStyle=orthogonalEdgeStyle;rounded=0;orthogonalLoop=1;jettySize=auto;html=1;" edge="1" parent="WIyWlLk6GJQsqaUBKTNV-1" source="ASWdld6HUyY5SWto6gkA-29" target="ASWdld6HUyY5SWto6gkA-71">
          <mxGeometry relative="1" as="geometry" />
        </mxCell>
        <mxCell id="ASWdld6HUyY5SWto6gkA-73" value="&lt;div&gt;Inter&lt;/div&gt;" style="edgeLabel;html=1;align=center;verticalAlign=middle;resizable=0;points=[];" vertex="1" connectable="0" parent="ASWdld6HUyY5SWto6gkA-72">
          <mxGeometry x="-0.0413" relative="1" as="geometry">
            <mxPoint as="offset" />
          </mxGeometry>
        </mxCell>
        <mxCell id="ASWdld6HUyY5SWto6gkA-29" value="Inter or Intra" style="rhombus;whiteSpace=wrap;html=1;" vertex="1" parent="WIyWlLk6GJQsqaUBKTNV-1">
          <mxGeometry x="120" y="500" width="80" height="80" as="geometry" />
        </mxCell>
        <mxCell id="ASWdld6HUyY5SWto6gkA-38" value="Yes" style="edgeStyle=orthogonalEdgeStyle;rounded=0;orthogonalLoop=1;jettySize=auto;html=1;exitX=1;exitY=0.5;exitDx=0;exitDy=0;entryX=0.5;entryY=0;entryDx=0;entryDy=0;" edge="1" parent="WIyWlLk6GJQsqaUBKTNV-1" source="ASWdld6HUyY5SWto6gkA-30">
          <mxGeometry relative="1" as="geometry">
            <mxPoint x="454" y="500" as="targetPoint" />
          </mxGeometry>
        </mxCell>
        <mxCell id="ASWdld6HUyY5SWto6gkA-30" value="Make a request?" style="rhombus;whiteSpace=wrap;html=1;" vertex="1" parent="WIyWlLk6GJQsqaUBKTNV-1">
          <mxGeometry x="310" y="350" width="80" height="80" as="geometry" />
        </mxCell>
        <mxCell id="ASWdld6HUyY5SWto6gkA-42" value="" style="edgeStyle=orthogonalEdgeStyle;rounded=0;orthogonalLoop=1;jettySize=auto;html=1;" edge="1" parent="WIyWlLk6GJQsqaUBKTNV-1" source="ASWdld6HUyY5SWto6gkA-40" target="ASWdld6HUyY5SWto6gkA-41">
          <mxGeometry relative="1" as="geometry" />
        </mxCell>
        <mxCell id="ASWdld6HUyY5SWto6gkA-43" value="Intra" style="edgeLabel;html=1;align=center;verticalAlign=middle;resizable=0;points=[];" vertex="1" connectable="0" parent="ASWdld6HUyY5SWto6gkA-42">
          <mxGeometry x="-0.1512" relative="1" as="geometry">
            <mxPoint as="offset" />
          </mxGeometry>
        </mxCell>
        <mxCell id="ASWdld6HUyY5SWto6gkA-45" style="edgeStyle=orthogonalEdgeStyle;rounded=0;orthogonalLoop=1;jettySize=auto;html=1;exitX=1;exitY=0.5;exitDx=0;exitDy=0;entryX=0;entryY=0.5;entryDx=0;entryDy=0;" edge="1" parent="WIyWlLk6GJQsqaUBKTNV-1" source="ASWdld6HUyY5SWto6gkA-40" target="ASWdld6HUyY5SWto6gkA-44">
          <mxGeometry relative="1" as="geometry" />
        </mxCell>
        <mxCell id="ASWdld6HUyY5SWto6gkA-74" value="Inter" style="edgeLabel;html=1;align=center;verticalAlign=middle;resizable=0;points=[];" vertex="1" connectable="0" parent="ASWdld6HUyY5SWto6gkA-45">
          <mxGeometry x="-0.1698" y="-1" relative="1" as="geometry">
            <mxPoint as="offset" />
          </mxGeometry>
        </mxCell>
        <mxCell id="ASWdld6HUyY5SWto6gkA-40" value="Inter or Intra" style="rhombus;whiteSpace=wrap;html=1;" vertex="1" parent="WIyWlLk6GJQsqaUBKTNV-1">
          <mxGeometry x="414" y="500" width="80" height="80" as="geometry" />
        </mxCell>
        <mxCell id="ASWdld6HUyY5SWto6gkA-53" value="" style="edgeStyle=orthogonalEdgeStyle;rounded=0;orthogonalLoop=1;jettySize=auto;html=1;" edge="1" parent="WIyWlLk6GJQsqaUBKTNV-1" source="ASWdld6HUyY5SWto6gkA-41" target="ASWdld6HUyY5SWto6gkA-52">
          <mxGeometry relative="1" as="geometry" />
        </mxCell>
        <mxCell id="ASWdld6HUyY5SWto6gkA-41" value="&lt;div&gt;Secret key:&lt;br&gt;&lt;/div&gt;&lt;div&gt;e(PrivA, PubB) = e(PubA, PrivB)&lt;/div&gt;" style="rounded=0;whiteSpace=wrap;html=1;" vertex="1" parent="WIyWlLk6GJQsqaUBKTNV-1">
          <mxGeometry x="394" y="660" width="120" height="60" as="geometry" />
        </mxCell>
        <mxCell id="ASWdld6HUyY5SWto6gkA-47" style="edgeStyle=orthogonalEdgeStyle;rounded=0;orthogonalLoop=1;jettySize=auto;html=1;exitX=1;exitY=0.5;exitDx=0;exitDy=0;entryX=0;entryY=0.5;entryDx=0;entryDy=0;" edge="1" parent="WIyWlLk6GJQsqaUBKTNV-1" source="ASWdld6HUyY5SWto6gkA-44" target="ASWdld6HUyY5SWto6gkA-46">
          <mxGeometry relative="1" as="geometry" />
        </mxCell>
        <mxCell id="ASWdld6HUyY5SWto6gkA-44" value="&lt;div&gt;$$r \in \mathbb{Z}^*_q$$&lt;br&gt;&lt;/div&gt;" style="rounded=0;whiteSpace=wrap;html=1;" vertex="1" parent="WIyWlLk6GJQsqaUBKTNV-1">
          <mxGeometry x="600" y="510" width="70" height="60" as="geometry" />
        </mxCell>
        <mxCell id="ASWdld6HUyY5SWto6gkA-49" value="" style="edgeStyle=orthogonalEdgeStyle;rounded=0;orthogonalLoop=1;jettySize=auto;html=1;" edge="1" parent="WIyWlLk6GJQsqaUBKTNV-1" source="ASWdld6HUyY5SWto6gkA-46" target="ASWdld6HUyY5SWto6gkA-48">
          <mxGeometry relative="1" as="geometry" />
        </mxCell>
        <mxCell id="ASWdld6HUyY5SWto6gkA-46" value="$$PubG = H1(IDG||IDR)$$" style="rounded=0;whiteSpace=wrap;html=1;" vertex="1" parent="WIyWlLk6GJQsqaUBKTNV-1">
          <mxGeometry x="700" y="510" width="170" height="60" as="geometry" />
        </mxCell>
        <mxCell id="ASWdld6HUyY5SWto6gkA-51" value="" style="edgeStyle=orthogonalEdgeStyle;rounded=0;orthogonalLoop=1;jettySize=auto;html=1;" edge="1" parent="WIyWlLk6GJQsqaUBKTNV-1" source="ASWdld6HUyY5SWto6gkA-48" target="ASWdld6HUyY5SWto6gkA-50">
          <mxGeometry relative="1" as="geometry" />
        </mxCell>
        <mxCell id="ASWdld6HUyY5SWto6gkA-48" value="$$PubW = H1(IDW ||IDG||IDR)$$" style="rounded=0;whiteSpace=wrap;html=1;" vertex="1" parent="WIyWlLk6GJQsqaUBKTNV-1">
          <mxGeometry x="890" y="510" width="210" height="60" as="geometry" />
        </mxCell>
        <mxCell id="ASWdld6HUyY5SWto6gkA-56" value="" style="edgeStyle=orthogonalEdgeStyle;rounded=0;orthogonalLoop=1;jettySize=auto;html=1;" edge="1" parent="WIyWlLk6GJQsqaUBKTNV-1" source="ASWdld6HUyY5SWto6gkA-50" target="ASWdld6HUyY5SWto6gkA-54">
          <mxGeometry relative="1" as="geometry">
            <Array as="points">
              <mxPoint x="1230" y="630" />
              <mxPoint x="1230" y="630" />
            </Array>
          </mxGeometry>
        </mxCell>
        <mxCell id="ASWdld6HUyY5SWto6gkA-50" value="$$C =&amp;lt; rPubR, rPubW , H2(gr ) ⊕ m &amp;gt;$$" style="rounded=0;whiteSpace=wrap;html=1;" vertex="1" parent="WIyWlLk6GJQsqaUBKTNV-1">
          <mxGeometry x="1130" y="510" width="240" height="60" as="geometry" />
        </mxCell>
        <mxCell id="ASWdld6HUyY5SWto6gkA-55" style="edgeStyle=orthogonalEdgeStyle;rounded=0;orthogonalLoop=1;jettySize=auto;html=1;exitX=1;exitY=0.5;exitDx=0;exitDy=0;entryX=0;entryY=0.5;entryDx=0;entryDy=0;" edge="1" parent="WIyWlLk6GJQsqaUBKTNV-1" source="ASWdld6HUyY5SWto6gkA-52" target="ASWdld6HUyY5SWto6gkA-54">
          <mxGeometry relative="1" as="geometry" />
        </mxCell>
        <mxCell id="ASWdld6HUyY5SWto6gkA-52" value="Secret Key(m)" style="rounded=0;whiteSpace=wrap;html=1;" vertex="1" parent="WIyWlLk6GJQsqaUBKTNV-1">
          <mxGeometry x="575" y="660" width="120" height="60" as="geometry" />
        </mxCell>
        <mxCell id="ASWdld6HUyY5SWto6gkA-58" value="" style="edgeStyle=orthogonalEdgeStyle;rounded=0;orthogonalLoop=1;jettySize=auto;html=1;" edge="1" parent="WIyWlLk6GJQsqaUBKTNV-1" source="ASWdld6HUyY5SWto6gkA-54" target="ASWdld6HUyY5SWto6gkA-57">
          <mxGeometry relative="1" as="geometry" />
        </mxCell>
        <mxCell id="ASWdld6HUyY5SWto6gkA-54" value="Communicate" style="rounded=0;whiteSpace=wrap;html=1;" vertex="1" parent="WIyWlLk6GJQsqaUBKTNV-1">
          <mxGeometry x="1170" y="660" width="120" height="60" as="geometry" />
        </mxCell>
        <mxCell id="ASWdld6HUyY5SWto6gkA-62" value="" style="edgeStyle=orthogonalEdgeStyle;rounded=0;orthogonalLoop=1;jettySize=auto;html=1;exitX=0.5;exitY=1;exitDx=0;exitDy=0;" edge="1" parent="WIyWlLk6GJQsqaUBKTNV-1" source="ASWdld6HUyY5SWto6gkA-57" target="ASWdld6HUyY5SWto6gkA-61">
          <mxGeometry relative="1" as="geometry">
            <Array as="points">
              <mxPoint x="1230" y="890" />
              <mxPoint x="1230" y="890" />
            </Array>
          </mxGeometry>
        </mxCell>
        <mxCell id="ASWdld6HUyY5SWto6gkA-63" value="Yes" style="edgeLabel;html=1;align=center;verticalAlign=middle;resizable=0;points=[];" vertex="1" connectable="0" parent="ASWdld6HUyY5SWto6gkA-62">
          <mxGeometry x="-0.3878" relative="1" as="geometry">
            <mxPoint as="offset" />
          </mxGeometry>
        </mxCell>
        <mxCell id="ASWdld6HUyY5SWto6gkA-57" value="Finished Communication?" style="rhombus;whiteSpace=wrap;html=1;" vertex="1" parent="WIyWlLk6GJQsqaUBKTNV-1">
          <mxGeometry x="1165" y="750" width="130" height="120" as="geometry" />
        </mxCell>
        <mxCell id="ASWdld6HUyY5SWto6gkA-59" style="edgeStyle=orthogonalEdgeStyle;rounded=0;orthogonalLoop=1;jettySize=auto;html=1;entryX=0.999;entryY=0.344;entryDx=0;entryDy=0;entryPerimeter=0;" edge="1" parent="WIyWlLk6GJQsqaUBKTNV-1" source="ASWdld6HUyY5SWto6gkA-57" target="ASWdld6HUyY5SWto6gkA-54">
          <mxGeometry relative="1" as="geometry">
            <Array as="points">
              <mxPoint x="1310" y="810" />
              <mxPoint x="1310" y="681" />
            </Array>
          </mxGeometry>
        </mxCell>
        <mxCell id="ASWdld6HUyY5SWto6gkA-60" value="No" style="edgeLabel;html=1;align=center;verticalAlign=middle;resizable=0;points=[];" vertex="1" connectable="0" parent="ASWdld6HUyY5SWto6gkA-59">
          <mxGeometry x="-0.0244" y="-1" relative="1" as="geometry">
            <mxPoint as="offset" />
          </mxGeometry>
        </mxCell>
        <mxCell id="ASWdld6HUyY5SWto6gkA-61" value="Clean Up" style="rounded=0;whiteSpace=wrap;html=1;" vertex="1" parent="WIyWlLk6GJQsqaUBKTNV-1">
          <mxGeometry x="1170" y="930" width="120" height="60" as="geometry" />
        </mxCell>
        <mxCell id="ASWdld6HUyY5SWto6gkA-64" style="edgeStyle=orthogonalEdgeStyle;rounded=0;orthogonalLoop=1;jettySize=auto;html=1;exitX=1;exitY=0.5;exitDx=0;exitDy=0;entryX=0.5;entryY=0;entryDx=0;entryDy=0;" edge="1" parent="WIyWlLk6GJQsqaUBKTNV-1" source="ASWdld6HUyY5SWto6gkA-61" target="ASWdld6HUyY5SWto6gkA-28">
          <mxGeometry relative="1" as="geometry">
            <Array as="points">
              <mxPoint x="1390" y="960" />
              <mxPoint x="1390" y="380" />
              <mxPoint x="390" y="380" />
              <mxPoint x="390" y="320" />
              <mxPoint x="160" y="320" />
            </Array>
          </mxGeometry>
        </mxCell>
        <mxCell id="ASWdld6HUyY5SWto6gkA-69" style="edgeStyle=orthogonalEdgeStyle;rounded=0;orthogonalLoop=1;jettySize=auto;html=1;exitX=0;exitY=0.5;exitDx=0;exitDy=0;entryX=1;entryY=0.5;entryDx=0;entryDy=0;" edge="1" parent="WIyWlLk6GJQsqaUBKTNV-1" source="ASWdld6HUyY5SWto6gkA-66" target="ASWdld6HUyY5SWto6gkA-68">
          <mxGeometry relative="1" as="geometry" />
        </mxCell>
        <mxCell id="ASWdld6HUyY5SWto6gkA-66" value="&lt;div&gt;Secret key:&lt;br&gt;&lt;/div&gt;&lt;div&gt;e(PrivA, PubB) = e(PubA, PrivB)&lt;/div&gt;" style="rounded=0;whiteSpace=wrap;html=1;" vertex="1" parent="WIyWlLk6GJQsqaUBKTNV-1">
          <mxGeometry x="100" y="650" width="120" height="60" as="geometry" />
        </mxCell>
        <mxCell id="ASWdld6HUyY5SWto6gkA-85" style="edgeStyle=orthogonalEdgeStyle;rounded=0;orthogonalLoop=1;jettySize=auto;html=1;exitX=0;exitY=0.5;exitDx=0;exitDy=0;" edge="1" parent="WIyWlLk6GJQsqaUBKTNV-1" source="ASWdld6HUyY5SWto6gkA-68" target="ASWdld6HUyY5SWto6gkA-83">
          <mxGeometry relative="1" as="geometry" />
        </mxCell>
        <mxCell id="ASWdld6HUyY5SWto6gkA-68" value="Secret Key(m)" style="rounded=0;whiteSpace=wrap;html=1;" vertex="1" parent="WIyWlLk6GJQsqaUBKTNV-1">
          <mxGeometry x="-90" y="650" width="120" height="60" as="geometry" />
        </mxCell>
        <mxCell id="ASWdld6HUyY5SWto6gkA-76" value="" style="edgeStyle=orthogonalEdgeStyle;rounded=0;orthogonalLoop=1;jettySize=auto;html=1;" edge="1" parent="WIyWlLk6GJQsqaUBKTNV-1" source="ASWdld6HUyY5SWto6gkA-71" target="ASWdld6HUyY5SWto6gkA-75">
          <mxGeometry relative="1" as="geometry" />
        </mxCell>
        <mxCell id="ASWdld6HUyY5SWto6gkA-71" value="$$C =&amp;lt; C0, C1, V &amp;gt;$$" style="rounded=0;whiteSpace=wrap;html=1;" vertex="1" parent="WIyWlLk6GJQsqaUBKTNV-1">
          <mxGeometry x="-100" y="510" width="130" height="60" as="geometry" />
        </mxCell>
        <mxCell id="ASWdld6HUyY5SWto6gkA-79" value="" style="edgeStyle=orthogonalEdgeStyle;rounded=0;orthogonalLoop=1;jettySize=auto;html=1;" edge="1" parent="WIyWlLk6GJQsqaUBKTNV-1" source="ASWdld6HUyY5SWto6gkA-75" target="ASWdld6HUyY5SWto6gkA-77">
          <mxGeometry relative="1" as="geometry" />
        </mxCell>
        <mxCell id="ASWdld6HUyY5SWto6gkA-75" value="$$PrivW = f(s,PubG) + f(pg,PubW)$$" style="rounded=0;whiteSpace=wrap;html=1;" vertex="1" parent="WIyWlLk6GJQsqaUBKTNV-1">
          <mxGeometry x="-430" y="510" width="260" height="60" as="geometry" />
        </mxCell>
        <mxCell id="ASWdld6HUyY5SWto6gkA-80" value="" style="edgeStyle=orthogonalEdgeStyle;rounded=0;orthogonalLoop=1;jettySize=auto;html=1;" edge="1" parent="WIyWlLk6GJQsqaUBKTNV-1" source="ASWdld6HUyY5SWto6gkA-77" target="ASWdld6HUyY5SWto6gkA-78">
          <mxGeometry relative="1" as="geometry" />
        </mxCell>
        <mxCell id="ASWdld6HUyY5SWto6gkA-77" value="$$d = (e(C_0,PrivW))/(e(Q_s, C_1))$$" style="rounded=0;whiteSpace=wrap;html=1;" vertex="1" parent="WIyWlLk6GJQsqaUBKTNV-1">
          <mxGeometry x="-800" y="510" width="300" height="60" as="geometry" />
        </mxCell>
        <mxCell id="ASWdld6HUyY5SWto6gkA-84" style="edgeStyle=orthogonalEdgeStyle;rounded=0;orthogonalLoop=1;jettySize=auto;html=1;exitX=1;exitY=0.5;exitDx=0;exitDy=0;" edge="1" parent="WIyWlLk6GJQsqaUBKTNV-1" source="ASWdld6HUyY5SWto6gkA-78" target="ASWdld6HUyY5SWto6gkA-83">
          <mxGeometry relative="1" as="geometry" />
        </mxCell>
        <mxCell id="ASWdld6HUyY5SWto6gkA-78" value="&lt;div&gt;$$m = H_2(d) \oplus V$$&lt;/div&gt;" style="rounded=0;whiteSpace=wrap;html=1;" vertex="1" parent="WIyWlLk6GJQsqaUBKTNV-1">
          <mxGeometry x="-730" y="650" width="160" height="60" as="geometry" />
        </mxCell>
        <mxCell id="ASWdld6HUyY5SWto6gkA-86" style="edgeStyle=orthogonalEdgeStyle;rounded=0;orthogonalLoop=1;jettySize=auto;html=1;exitX=0.5;exitY=1;exitDx=0;exitDy=0;entryX=0;entryY=0.5;entryDx=0;entryDy=0;" edge="1" parent="WIyWlLk6GJQsqaUBKTNV-1" source="ASWdld6HUyY5SWto6gkA-83" target="ASWdld6HUyY5SWto6gkA-28">
          <mxGeometry relative="1" as="geometry">
            <Array as="points">
              <mxPoint x="-340" y="860" />
              <mxPoint x="-820" y="860" />
              <mxPoint x="-820" y="390" />
            </Array>
          </mxGeometry>
        </mxCell>
        <mxCell id="ASWdld6HUyY5SWto6gkA-83" value="Read Message" style="rounded=0;whiteSpace=wrap;html=1;" vertex="1" parent="WIyWlLk6GJQsqaUBKTNV-1">
          <mxGeometry x="-400" y="780" width="120" height="60" as="geometry" />
        </mxCell>
      </root>
    </mxGraphModel>
  </diagram>
</mxfile>
